Coordinates
version=1
nRows=26
nColumns=22
inDegrees=yes

Units are S.I. units (second, meters, Newtons, ...)
If the header above contains a line with 'inDegrees', this indicates whether rotational values are in degrees (yes) or radians (no).

endheader
time	pelvis_tilt	pelvis_list	pelvis_rotation	pelvis_tx	pelvis_ty	pelvis_tz	hip_flexion_r	hip_adduction_r	hip_rotation_r	knee_angle_r	ankle_angle_r	subtalar_angle_r	hip_flexion_l	hip_adduction_l	hip_rotation_l	knee_angle_l	ankle_angle_l	subtalar_angle_l	lumbar_extension	lumbar_bending	lumbar_rotation
      0.01000000	    -10.87929517	      1.66477223	    -14.53502469	     -0.99308659	      0.97681463	      0.08219162	     22.66608252	      1.01015719	      1.33482381	    -26.35679318	     19.11843444	     -3.68097232	     20.25220243	      1.00050692	     -4.36386430	    -22.16453170	     19.24359848	     -3.47040433	      3.18954638	      0.93842857	      5.26027679
      0.02000000	    -10.88007370	      1.66518858	    -14.52880180	     -0.99307401	      0.97681748	      0.08217852	     22.66550680	      1.00837604	      1.33625448	    -26.35912869	     19.11456772	     -3.67868666	     20.25159451	      1.00346494	     -4.36477176	    -22.16306844	     19.24618452	     -3.46950037	      3.18865235	      0.94620436	      5.26451992
      0.03000000	    -10.88039999	      1.66684193	    -14.52244319	     -0.99305138	      0.97682419	      0.08215690	     22.66467930	      1.00425923	      1.33601904	    -26.36148616	     19.10974299	     -3.67629009	     20.24948275	      1.00905919	     -4.36333495	    -22.16017490	     19.24908978	     -3.46802453	      3.18732946	      0.95531473	      5.27154319
      0.04000000	    -10.87228133	      1.67459188	    -14.51915602	     -0.99300293	      0.97685148	      0.08213486	     22.65692184	      0.98699019	      1.31144912	    -26.36300157	     19.08346258	     -3.65981526	     20.22535191	      1.02867688	     -4.33141298	    -22.13321716	     19.26420574	     -3.45535935	      3.18073985	      0.95279811	      5.30883039
      0.05000000	    -10.87162339	      1.67731314	    -14.51103493	     -0.99296575	      0.97685873	      0.08210449	     22.65398069	      0.98055366	      1.31329988	    -26.36410682	     19.08326282	     -3.65849885	     20.22178635	      1.03658259	     -4.33211410	    -22.12994298	     19.26416413	     -3.45400817	      3.17972091	      0.96315380	      5.31201849
      0.06000000	    -10.82081154	      1.69964244	    -14.49621177	     -0.99286907	      0.97695722	      0.08206053	     22.60210368	      0.93110512	      1.28341930	    -26.36580706	     19.09434986	     -3.62438104	     20.13567397	      1.08992363	     -4.28642499	    -22.06247871	     19.24898837	     -3.42124149	      3.13007813	      0.93283494	      5.32458031
      0.07000000	    -10.82113044	      1.70213905	    -14.49074244	     -0.99284405	      0.97696083	      0.08203830	     22.59957613	      0.92552488	      1.28234327	    -26.36213290	     19.09546244	     -3.62365417	     20.13485673	      1.09561106	     -4.28926612	    -22.06154833	     19.24879902	     -3.42067619	      3.12785178	      0.94413294	      5.33098495
      0.08000000	    -10.81822000	      1.70218563	    -14.48402238	     -0.99279967	      0.97697661	      0.08203845	     22.58537714	      0.91760901	      1.25365232	    -26.34483855	     19.10009180	     -3.61955855	     20.12476070	      1.09818839	     -4.28994892	    -22.05209483	     19.24648650	     -3.41660244	      3.12590505	      0.95018839	      5.36590898
      0.09000000	    -10.81911703	      1.70336328	    -14.47570723	     -0.99280461	      0.97697541	      0.08203602	     22.58606950	      0.91456986	      1.25254529	    -26.34443262	     19.10003343	     -3.61920801	     20.12476486	      1.09945987	     -4.29192277	    -22.04760903	     19.24627036	     -3.41590709	      3.11978514	      0.95784310	      5.37107694
      0.10000000	    -10.81680363	      1.69709249	    -14.46746678	     -0.99279463	      0.97698541	      0.08204178	     22.58003436	      0.91406705	      1.22097204	    -26.34167749	     19.09757689	     -3.61797730	     20.11728620	      1.09374798	     -4.29201878	    -22.04043982	     19.24135806	     -3.41109018	      3.11118429	      0.97043542	      5.39990644
      0.11000000	    -10.81853780	      1.69773668	    -14.45767381	     -0.99280997	      0.97698179	      0.08204154	     22.58138969	      0.91198535	      1.22101872	    -26.34064966	     19.09715478	     -3.61816502	     20.11959226	      1.09375374	     -4.29453568	    -22.03685599	     19.24119989	     -3.41061814	      3.10449749	      0.97719415	      5.40392234
      0.12000000	    -10.82074477	      1.69765485	    -14.44615466	     -0.99282295	      0.97697792	      0.08203673	     22.58263178	      0.91059960	      1.22001514	    -26.33983185	     19.09682093	     -3.61863503	     20.12250867	      1.09351337	     -4.29735941	    -22.03361562	     19.24038689	     -3.41014971	      3.09820836	      0.98489696	      5.41000303
      0.13000000	    -10.82332761	      1.69705800	    -14.43368429	     -0.99283345	      0.97697445	      0.08202393	     22.58392307	      0.90924430	      1.21930256	    -26.33914480	     19.09673994	     -3.61937161	     20.12601728	      1.09326938	     -4.30000912	    -22.03090878	     19.23890988	     -3.40969291	      3.09209723	      0.99369273	      5.41690477
      0.14000000	    -10.82606199	      1.69634097	    -14.42117457	     -0.99284072	      0.97697204	      0.08200725	     22.58506865	      0.90838573	      1.21942681	    -26.33852222	     19.09698493	     -3.62034954	     20.13005556	      1.09338492	     -4.30197033	    -22.02907057	     19.23666721	     -3.40924028	      3.08636742	      1.00292431	      5.42362726
      0.15000000	    -10.82888598	      1.69593295	    -14.40880793	     -0.99284772	      0.97697017	      0.08198826	     22.58642525	      0.90724406	      1.22094314	    -26.33764377	     19.09751278	     -3.62141897	     20.13456664	      1.09387362	     -4.30330540	    -22.02741350	     19.23398907	     -3.40886861	      3.08055491	      1.01196434	      5.42940227
      0.16000000	    -10.83191456	      1.69602938	    -14.39692577	     -0.99285641	      0.97696812	      0.08196921	     22.58806544	      0.90617569	      1.22314537	    -26.33630594	     19.09825134	     -3.62255984	     20.13941934	      1.09475080	     -4.30395821	    -22.02569444	     19.23079863	     -3.40856612	      3.07471266	      1.02054567	      5.43432316
      0.17000000	    -10.83517581	      1.69662028	    -14.38604290	     -0.99286646	      0.97696618	      0.08195166	     22.59012212	      0.90507283	      1.22540988	    -26.33448090	     19.09909826	     -3.62368906	     20.14437547	      1.09616979	     -4.30393029	    -22.02336349	     19.22729785	     -3.40832214	      3.06902353	      1.02863392	      5.43848996
      0.18000000	    -10.83834823	      1.69791912	    -14.37709134	     -0.99287570	      0.97696264	      0.08193821	     22.59278063	      0.90416948	      1.22717642	    -26.33242906	     19.09981374	     -3.62452401	     20.14805178	      1.09847427	     -4.30371908	    -22.02039737	     19.22449622	     -3.40814358	      3.06393497	      1.03574610	      5.44175748
      0.19000000	    -10.85223613	      1.69691650	    -14.36158863	     -0.99287657	      0.97694993	      0.08191467	     22.60141405	      0.90564370	      1.22433777	    -26.32504052	     19.10463930	     -3.63138343	     20.15967439	      1.10080985	     -4.27633470	    -22.01274165	     19.19608868	     -3.40632322	      3.07423192	      1.04831099	      5.45093560
      0.20000000	    -10.85601355	      1.69987605	    -14.35545737	     -0.99289434	      0.97694506	      0.08189906	     22.60618228	      0.90316121	      1.22487700	    -26.32286074	     19.10431769	     -3.63189174	     20.16359294	      1.10425357	     -4.27790058	    -22.00712719	     19.19638864	     -3.40637093	      3.06683256	      1.05469872	      5.45120086
      0.21000000	    -10.85947049	      1.70247772	    -14.34842744	     -0.99289957	      0.97694221	      0.08188290	     22.61016454	      0.90034968	      1.22517430	    -26.32195862	     19.10389423	     -3.63232319	     20.16566531	      1.10811439	     -4.27929624	    -22.00106328	     19.19634227	     -3.40635486	      3.06235640	      1.06148003	      5.45257678
      0.22000000	    -10.86367391	      1.70534765	    -14.34144642	     -0.99290330	      0.97693793	      0.08186197	     22.61469531	      0.89609426	      1.22463367	    -26.32119634	     19.10335469	     -3.63275588	     20.16738889	      1.11168465	     -4.28072207	    -21.99265203	     19.19593908	     -3.40628675	      3.05808968	      1.06897867	      5.45454486
      0.23000000	    -10.87562221	      1.71454028	    -14.33687476	     -0.99286523	      0.97692828	      0.08184109	     22.63063704	      0.88413258	      1.20630562	    -26.32718901	     19.09848123	     -3.63477823	     20.16041540	      1.12247589	     -4.27620893	    -21.95318714	     19.18807966	     -3.40585432	      3.07427944	      1.07328548	      5.45707358
      0.24000000	    -10.87944725	      1.71789025	    -14.33053114	     -0.99286730	      0.97692376	      0.08181263	     22.63466384	      0.87915488	      1.20763059	    -26.32586985	     19.09826935	     -3.63506428	     20.16303419	      1.12740079	     -4.27737012	    -21.94749656	     19.18714979	     -3.40594211	      3.06794718	      1.07937871	      5.45914796
      0.25000000	    -10.88330578	      1.72130072	    -14.32409164	     -0.99285349	      0.97691954	      0.08177422	     22.63869318	      0.87312597	      1.20913603	    -26.32586017	     19.09806406	     -3.63533513	     20.16297081	      1.13362894	     -4.27902565	    -21.93892433	     19.18600427	     -3.40592121	      3.06422710	      1.08744767	      5.46112785
      0.26000000	    -10.89166075	      1.74099110	    -14.32554341	     -0.99278901	      0.97691503	      0.08174296	     22.65459266	      0.85159851	      1.20651716	    -26.33586232	     19.09757483	     -3.63621268	     20.14137959	      1.15823449	     -4.27185147	    -21.87807367	     19.17369051	     -3.40545781	      3.08132523	      1.08140253	      5.45959527
